# xmcd
#
# Track frame offsets: 
#        150
#        16147
#        35546
#        53328
#        68261
#        81707
#        98865
#        112156
#        128839
#        140085
#        156153
#        179727
#        197095
#        213967
#        228432
#        244598
#        259544
#        274181
#        288963
#        305379
#        322445
#        333703
#
# Disc length: 4687 seconds
#
# Revision: 0
# Processed by: cddbd v1.5.2PL0 Copyright (c) Steve Scherf et al.
# Submitted via: ExactAudioCopy v0.95b3
#
DISCID=49124d16
DTITLE=Eric Clapton  - Eric Clapton - Archives Pathfinder - Outtakes -
DTITLE=Mid Valley Records - Disc 1  FLAC
DYEAR=1900
DGENRE=
TTITLE0=Slunky (Delaney Bramlette Mix)
TTITLE1=Bad Boy (Delaney Bramlette Mix)
TTITLE2=Lonesome and a Long Way From Home (Delaney Bramlette Mix)
TTITLE3=After Midnight (Delaney Bramlette Mix)
TTITLE4=Easy Now (EC Mix)
TTITLE5=Blues Power (Delaney Bramlette Mix)
TTITLE6=Bottle of Red Wine (Delaney Bramlette Mix)
TTITLE7=Lovin' You Lovin' Me (Delaney Bramlette Mix)
TTITLE8=Told You For the Last Time (Delaney Bramlette Mix)
TTITLE9=Don't Know Why (Delaney Bramlette Mix)
TTITLE10=Let it Rain (Delaney Bramlette Mix)
TTITLE11=Bad Boy (Original Long Version)
TTITLE12=Lonesome and a Long Way From Home (Original Long Version)
TTITLE13=After Midnight (Original Long Version)
TTITLE14=Blues Power (Original Long Version)
TTITLE15=Don't Know Why (Original Long Version)
TTITLE16=After Midnight (Alternate Mix #1)
TTITLE17=Blues Power (Alternate Mix #1)
TTITLE18=Bad Boy (Alternate Mix #1 with different vocal take 1)
TTITLE19=Lovin' You Lovin' Me (Alternate Mix #1)
TTITLE20=Told You For the Last Time (Alternate Mix)
TTITLE21=Bad Boy (Alternate Mix #2 with different vocal take 2)
EXTD=
EXTT0=
EXTT1=
EXTT2=
EXTT3=
EXTT4=
EXTT5=
EXTT6=
EXTT7=
EXTT8=
EXTT9=
EXTT10=
EXTT11=
EXTT12=
EXTT13=
EXTT14=
EXTT15=
EXTT16=
EXTT17=
EXTT18=
EXTT19=
EXTT20=
EXTT21=
PLAYORDER=
